<svg width="498" height="760" viewBox="0 0 498 760" fill="none" xmlns="http://www.w3.org/2000/svg">
<path fill-rule="evenodd" clip-rule="evenodd" d="M29.231 2.51467C11.07 11.1707 1.66298 38.1297 0.222982 85.6447C-1.18602 132.116 5.83598 175.173 21.097 213.645C27.255 229.169 36.296 245.863 48.647 264.515C54.964 274.055 60.584 283.704 61.375 286.367C62.945 291.652 62.51 294.11 57.61 307.645C53.3 319.553 51.776 328.719 51.21 346.145C50.595 365.068 51.508 370.664 55.452 372.164C56.915 372.72 58.85 372.735 60.255 372.201L62.608 371.306L62.564 387.976C62.515 406.879 63.383 410.411 68.209 410.966C70.38 411.216 71.767 410.452 74.438 407.536C76.328 405.472 78.079 403.988 78.328 404.238C79.02 404.929 84.921 418.13 86.513 422.545C87.82 426.169 87.634 427.89 83.892 446.817C79.997 466.52 76.839 489.755 73.384 524.145L71.726 540.645L66.313 550.796C60.062 562.516 53.944 580.078 50.862 595.145C49.058 603.965 48.789 607.964 49.183 620.145C49.77 638.326 52.002 646.403 62.453 668.145C72.197 688.418 72.34 691.896 63.83 701.729C56.039 710.73 54.224 717.926 57.798 725.645C62.83 736.514 75.479 741.507 103.608 743.728C111.908 744.383 112.627 744.627 116.402 748.073C125.104 756.017 135.671 759.127 156.466 759.866C178.977 760.666 192.395 757.406 202.621 748.654C208.312 743.782 212.613 734.847 213.475 726.106L214.159 719.162L218.28 719.904C220.547 720.311 237.299 720.645 255.506 720.645H288.61L288.78 725.836C288.99 732.293 290.901 737.829 294.949 743.713C303.505 756.149 319.136 760.929 347.769 759.866C368.087 759.112 376.882 756.505 386.902 748.269C391.374 744.593 391.501 744.559 407.057 742.854C431.724 740.151 440.631 736.352 445.037 726.654C448.658 718.682 446.753 710.695 439.191 702.145C430.623 692.457 430.591 688.428 438.94 671.219C450.173 648.069 453.902 633.975 453.902 614.666C453.902 595.557 449.501 577.35 441.132 561.834C437.441 554.991 437.172 553.903 436.506 543.107C435.072 519.883 430.12 490.587 422.736 461.645C417.394 440.709 413.102 428.436 405.74 413.044L399.713 400.443L402.722 391.044C406.17 380.277 408.902 366.863 408.902 360.701C408.902 358.379 409.196 356.184 409.555 355.825C409.914 355.466 412.154 356.966 414.533 359.159C422.011 366.052 423.131 364.846 424.835 348.063C426.559 331.079 424.935 317.318 418.845 297.315C416.501 289.616 416.492 289.636 426.902 278.585C441.421 263.17 452.751 243.668 470.812 202.996C482.35 177.014 490.644 153.143 494.386 135.145C497.562 119.865 498.795 92.9897 497 78.1447C493.786 51.5557 484.405 31.0127 472.764 25.0747C461.018 19.0817 446.593 21.5317 429.402 32.4377C387.087 59.2847 345.171 98.4997 315.028 139.443C311.061 144.832 307.207 149.474 306.465 149.759C305.723 150.044 301.215 148.9 296.447 147.217C267.782 137.1 223.491 136.032 186.865 144.577C183.394 145.386 180.235 145.851 179.845 145.61C179.454 145.368 178.131 143.027 176.904 140.408C173.423 132.974 156.301 103.617 149.631 93.6447C134.774 71.4347 121.585 55.5887 100.502 34.6217C84.404 18.6117 72.698 9.40267 61.902 4.25567C55.105 1.01567 53.465 0.650672 44.402 0.365672C35.463 0.0836717 33.853 0.311673 29.231 2.51467ZM34.402 10.6347C28.894 12.5657 21.592 20.6857 18.905 27.8657C4.12296 67.3747 7.22597 141.294 26.031 197.645C32.629 217.414 43.418 239.45 54.675 256.145C65.646 272.417 70.821 278.531 72.902 277.682C73.727 277.346 76.327 274.368 78.68 271.066C81.033 267.763 83.621 264.806 84.432 264.495C86.856 263.565 90.725 265.013 91.387 267.097C92.206 269.677 90.248 272.978 81.984 282.952C71.24 295.918 65.694 309.031 62.445 329.145C61.601 334.37 60.908 342.613 60.906 347.463L60.902 356.281L63.806 354.213C65.404 353.076 68.088 352.145 69.771 352.145C74.463 352.145 75.175 354.469 73.994 365.918C73.139 374.201 72.372 392.103 72.776 394.344C72.845 394.728 74.393 394.42 76.215 393.659C81.607 391.406 83.612 393.162 88.471 404.396C102.13 435.977 117.915 459.175 132.637 469.306C137.791 472.853 139.361 475.419 137.969 478.02C136.704 480.383 134.033 481.108 130.884 479.943C126.771 478.421 108.674 459.186 102.17 449.423L96.027 440.202L94.53 445.423C90.407 459.798 81.722 520.717 76.834 569.544C75.228 585.592 76.109 608.723 78.851 622.493C85.068 653.706 94.563 676.65 112.867 704.689C117.176 711.289 117.948 713.143 117.427 715.64C114.966 727.431 116.064 734.104 121.444 740.06C128.822 748.226 143.001 751.713 165.605 750.92C186.525 750.186 195.508 746.205 201.152 735.166C203.527 730.521 203.902 728.603 203.902 721.121C203.902 709.512 204.904 708.481 214.58 710.127C225.586 711.999 265.388 712.606 281.716 711.151C292.75 710.168 296.304 710.147 297.217 711.06C297.967 711.811 298.402 715.803 298.402 721.945C298.402 730.437 298.713 732.199 300.902 736.098C304.095 741.787 310.491 746.65 317.718 748.886C325.921 751.424 358.847 751.436 367.026 748.904C375.307 746.34 381.908 741.521 385.191 735.645C387.803 730.97 387.939 730.158 387.288 723.145C386.255 712.02 386.2 712.241 392.654 701.553C416.334 662.342 426.51 627.433 427.63 581.576C428.603 541.716 423.551 500.811 412.446 458.645C406.081 434.475 395.698 408.059 393.776 411.145C393.262 411.97 390.544 416.695 387.735 421.645C377.475 439.73 361.271 459.055 346.204 471.175C342.232 474.37 338.032 477.286 336.871 477.655C334.592 478.378 330.902 475.838 330.902 473.546C330.902 472.837 335.29 468.604 340.652 464.141C360.23 447.844 375.818 427.316 387.853 401.98C396.051 384.721 400.856 367.026 400.886 353.977C400.895 350.309 401.175 346.597 401.509 345.727C402.422 343.348 407.3 343.797 411.497 346.645C413.523 348.02 415.636 349.145 416.192 349.145C417.606 349.145 416.385 332.18 414.311 322.987C412.206 313.659 408.504 304.31 400.943 289.228C394.923 277.217 392.734 269.985 394.745 268.742C395.341 268.374 397.396 270.614 399.446 273.866C403.816 280.8 405.39 282.145 409.136 282.145C425.146 282.145 472.659 188.953 482.808 137.645C489.376 104.445 487.795 66.2907 479.083 47.7387C470.151 28.7177 457.023 26.1917 435.251 39.3047C428.212 43.5437 402.225 62.9817 390.987 72.4137C377.337 83.8697 344.619 117.202 329.904 134.645C322.479 143.445 314.318 152.796 311.766 155.425L307.128 160.205L301.765 158.037C280.785 149.555 253.27 146.019 224.402 148.095C208.414 149.245 195.837 151.148 186.902 153.77C176.136 156.93 176.181 156.952 170.055 145.645C154.107 116.213 138.126 91.2787 123.267 72.6447C112.342 58.9447 82.917 29.3007 72.902 21.9057C57.405 10.4637 45.136 6.87168 34.402 10.6347ZM65.402 53.0297C53.209 56.2027 44.322 68.6267 41.855 85.9447C40.877 92.8177 40.871 97.8367 41.826 109.842C43.814 134.803 47.743 150.145 52.148 150.145C53.912 150.145 54.095 149.675 53.604 146.395C50.947 128.64 50.676 124.304 51.184 107.645C51.797 87.5807 53.792 77.2907 58.428 70.2847C63.239 63.0147 71.958 61.1997 78.77 66.0507C80.4 67.2107 83.5 70.9697 85.66 74.4027C90.622 82.2897 114.217 123.641 116.567 128.569L118.328 132.261L114.865 134.952C107.688 140.531 104.086 144.276 103.446 146.825C102.367 151.127 104.438 152.139 115.718 152.827C121.319 153.168 125.902 153.748 125.902 154.116C125.902 154.483 123.011 159.598 119.478 165.48C113.045 176.191 110.942 181.585 112.567 183.21C113.057 183.7 115.925 183.427 119.155 182.583C126.259 180.728 133.902 179.277 133.902 179.784C133.902 179.993 131.382 183.572 128.302 187.736C120.886 197.765 113.193 210.239 109.857 217.645C105.925 226.373 105.484 228.145 107.244 228.145C108.057 228.145 110.621 224.658 112.944 220.395C118.375 210.427 130.254 192.576 137.351 183.717C140.404 179.906 142.902 176.451 142.902 176.038C142.902 175.625 142.195 174.581 141.331 173.716C139.595 171.981 134.831 171.763 127.902 173.102C125.427 173.58 123.235 173.806 123.031 173.603C122.425 173.004 127.355 165.085 132.279 158.746C134.8 155.502 137.142 151.964 137.485 150.885C138.449 147.845 135.808 146.091 129.31 145.456C120.895 144.634 119.66 143.747 123.774 141.478C129.399 138.377 131.902 136.086 131.902 134.039C131.902 131.377 129.189 126.204 114.607 101.057C100.165 76.1527 96.638 70.5157 91.202 63.6447C84.675 55.3937 73.688 50.8727 65.402 53.0297ZM431.427 70.739C425.641 74.3 403.226 94.773 394.43 104.53C379.937 120.608 361.948 138.631 353.927 145.11C343.728 153.348 342.698 154.589 344.015 157.05C344.598 158.139 346.945 159.824 349.231 160.795L353.386 162.56L347.657 166.364C343.526 169.106 341.927 170.792 341.927 172.404C341.927 175.495 343.391 176.452 351.589 178.724C359.468 180.908 361.988 182.049 363.83 184.268C364.86 185.509 364.593 185.999 362.248 187.177C360.696 187.956 357.177 189.123 354.427 189.771C347.882 191.313 343.927 192.913 343.927 194.017C343.927 194.506 348.343 201.764 353.74 210.146C359.137 218.527 365.858 229.21 368.675 233.885C375.373 245 376.407 246.324 377.74 245.5C380.193 243.984 370.539 221.796 361.124 207.308L355.224 198.231L366.925 194.591C380.043 190.509 383.541 188.394 382.515 185.162C381.611 182.313 378.06 180.123 367.427 175.858C362.477 173.873 358.427 171.749 358.427 171.139C358.427 170.529 360.34 168.644 362.677 166.951C368.441 162.775 368.164 158.468 361.965 155.901C360.294 155.209 358.927 154.13 358.927 153.503C358.927 152.876 362.605 149.219 367.099 145.374C371.594 141.53 382.269 130.51 390.822 120.885C408.677 100.79 416.012 93.423 424.355 87.204C429.194 83.597 430.938 82.841 433.855 83.085C436.902 83.341 437.71 83.966 439.354 87.333C442.096 92.951 442.571 104.585 440.482 114.989C439.554 119.607 435.704 132.61 431.926 143.885C427.713 156.455 425.412 164.747 425.978 165.322C429.941 169.345 444.547 138.216 448 118.389C449.714 108.545 448.706 88.981 446.062 80.773C442.357 69.272 438.314 66.5 431.427 70.739ZM163.896 254.024C147.822 259.267 142.022 275.609 151.42 289.172C158.866 299.916 176.492 301.519 186.278 292.342C196.831 282.446 194.435 264.23 181.59 256.702C176.995 254.009 168.078 252.66 163.896 254.024ZM290.106 256.273C275.158 263.672 275.299 286.313 290.35 295.619C294.43 298.141 296.284 298.645 301.487 298.645C306.812 298.645 308.359 298.203 312.011 295.636C325.297 286.299 324.062 263.369 309.884 256.136C304.53 253.404 295.779 253.465 290.106 256.273ZM216.242 306.514C206.36 309.761 200.569 317.433 200.569 327.279C200.569 338.988 213.579 359.565 224.511 365.148C235.045 370.527 248 367.505 258.801 357.148C267.601 348.711 274.902 335.103 274.902 327.138C274.902 319.082 267.739 311.453 256.944 308.011C248.483 305.312 222.777 304.367 216.242 306.514ZM302.563 355.395C301.802 356.633 299.558 360.377 297.577 363.715C293.016 371.402 284.434 379.558 277.655 382.647C266.058 387.931 252.161 387.713 242.167 382.09C235.757 378.484 234.885 378.457 231.826 381.774C225.013 389.162 207.993 389.834 193.547 383.284C186.223 379.962 176.369 371.16 171.811 363.867C165.593 353.917 162.936 352.24 159.467 356.073C157.208 358.57 157.959 360.966 163.415 368.67C172.763 381.87 185.829 391.585 198.925 395.073L203.448 396.278L203.09 406.461C201.881 440.851 221.191 463.017 246.061 455.787C261.608 451.267 271.46 431.681 270.719 406.763L270.402 396.083L274.402 395.079C281.814 393.218 286.918 390.982 292.952 386.952C302.682 380.455 312.902 366.256 312.902 359.235C312.902 353.768 305.302 350.945 302.563 355.395ZM227.402 394.179C224.102 395.181 219.298 396.281 216.726 396.623L212.05 397.245L211.33 403.945C210.453 412.109 212.01 424.686 214.833 432.23C220.587 447.609 234.494 454.139 247.593 447.612C257.149 442.85 262.289 434.117 264.5 413.044C264.5 403.856 265.746 396.448 261.459 396.949C258.517 397.292 249.555 396.183 241.652 394.498L238.902 393.912V409.528C238.902 422.622 238.664 425.145 237.428 425.145C232.527 425.145 233.5 409.528 234.5 393.912C234.5 393.912 234.5 392.5 227.402 394.179ZM63.564 584.844C60.121 595.633 58.511 605.866 58.484 617.145C58.442 634.916 61.931 647.457 72.957 669.157C82.115 687.182 81.819 695.117 71.543 706.982C68.558 710.429 65.926 714.239 65.695 715.448C64.486 721.774 69.171 727.869 77.344 730.6C82.785 732.418 99.325 735.13 105.031 735.139L108.66 735.145L107.716 730.721C107.098 727.822 107.138 724.319 107.833 720.56L108.894 714.823L102.54 705.234C89.135 685.001 81.168 667.263 75.506 645.044C70.584 625.725 68.743 613.703 68.03 596.226C67.348 579.469 66.207 576.563 63.564 584.844ZM436.592 593.852C434.796 630.697 422.913 668.368 402.044 703.375C395.311 714.67 395.091 715.244 396.096 718.875C396.67 720.948 396.875 725.488 396.552 728.963L395.965 735.281L401.683 734.644C424.514 732.102 433.179 729.148 436.251 722.859C438.662 717.926 437.989 715.625 432.047 708.487C420.485 694.597 420.447 688.881 431.758 665.003C442.819 641.654 446.105 626.33 444.011 607.869C442.803 597.221 439.692 583.535 438.124 581.967C437.579 581.422 436.965 586.182 436.592 593.852ZM402.554 605.2C392.854 621.386 381.191 634.591 360.876 652.389C355.836 656.803 355.576 657.247 357.116 658.788C358.657 660.329 359.175 660.247 364.587 657.619C372.682 653.688 393.694 632.727 401.279 621.018C407.768 611.001 410.902 604.176 410.902 600.062C410.902 594.593 407.746 596.536 402.554 605.2ZM90.902 604.127C90.902 608.841 104.033 627.389 115.352 638.664C129.228 652.486 141.937 660.51 145.038 657.409C146.679 655.768 145.184 653.987 135.902 646.528C124.497 637.364 114.794 627.516 106.455 616.645C102.658 611.695 98.421 606.408 97.04 604.895C94.063 601.636 90.902 601.241 90.902 604.127Z" fill="#7AE2CF"/>
</svg>
