<svg width="183" height="32" viewBox="0 0 183 32" fill="none" xmlns="http://www.w3.org/2000/svg">
<path d="M15.8729 25L13.7929 9.992L13.6649 9.704L12.3209 3.88H18.1129L19.7769 16.584H19.8729L26.1449 3.912H31.9049L26.1449 10.024L18.8489 25H15.8729ZM5.63288 25.8C4.97154 25.8 4.43821 25.5867 4.03288 25.16C3.64888 24.7547 3.46754 24.296 3.48888 23.784C3.48888 23.4853 3.55288 23.208 3.68088 22.952C4.42754 22.888 5.11021 22.5787 5.72888 22.024C6.34754 21.4693 6.92354 20.7227 7.45688 19.784C7.99021 18.824 8.48088 17.736 8.92888 16.52C9.37688 15.2827 9.79288 13.9707 10.1769 12.584C10.5609 11.176 10.9235 9.736 11.2649 8.264C11.6062 6.77067 11.9262 5.30933 12.2249 3.88L14.2089 7.816C13.7395 10.76 13.2382 13.2773 12.7049 15.368C12.1715 17.4587 11.6169 19.1867 11.0409 20.552C10.4649 21.896 9.87821 22.952 9.28088 23.72C8.68354 24.4667 8.07554 25 7.45688 25.32C6.83821 25.64 6.23021 25.8 5.63288 25.8ZM4.60888 13.608C3.71288 13.608 2.96621 13.416 2.36888 13.032C1.79288 12.648 1.36621 12.136 1.08888 11.496C0.811542 10.8347 0.683542 10.12 0.704875 9.352C0.726208 8.584 0.896875 7.82667 1.21688 7.08C1.53688 6.312 2.01688 5.61867 2.65688 5C3.29688 4.38133 4.09688 3.88 5.05688 3.496C6.01688 3.112 7.15821 2.92 8.48088 2.92C9.69688 2.92 10.8062 3.00533 11.8089 3.176C12.8115 3.32533 13.8142 3.47467 14.8169 3.624C15.8195 3.77333 16.9075 3.85867 18.0809 3.88L15.5849 6.824L11.9049 5.512L11.7449 5.224C11.1475 5.032 10.5609 4.936 9.98488 4.936C8.85421 4.936 7.91554 5.30933 7.16888 6.056C6.42221 6.80267 6.02754 7.85867 5.98488 9.224C5.98488 9.84267 6.02754 10.4293 6.11288 10.984C6.21954 11.5173 6.43288 12.1147 6.75288 12.776C6.43288 13.0747 6.07021 13.288 5.66488 13.416C5.28088 13.544 4.92888 13.608 4.60888 13.608ZM28.4809 30.088C27.9262 30.088 27.4035 29.9813 26.9129 29.768C26.4222 29.5547 25.9955 29.1813 25.6329 28.648C25.2915 28.1147 25.0249 27.3467 24.8329 26.344C24.6622 25.3627 24.5982 24.0933 24.6409 22.536C24.6835 21.4693 24.7689 20.232 24.8969 18.824C25.0462 17.416 25.2702 15.8267 25.5689 14.056C25.8675 12.2853 26.2622 10.344 26.7529 8.232L26.6249 7.464L26.1449 3.912H31.9689C31.7982 5.17067 31.6169 6.49333 31.4249 7.88C31.2329 9.26667 31.0409 10.6533 30.8489 12.04C30.6782 13.4267 30.5289 14.7813 30.4009 16.104C30.2942 17.4267 30.2302 18.6747 30.2089 19.848C30.1449 21.8107 30.2409 23.4853 30.4969 24.872C30.7529 26.2587 31.2435 27.1867 31.9689 27.656C31.9262 27.9973 31.7342 28.3493 31.3929 28.712C31.0729 29.096 30.6569 29.416 30.1449 29.672C29.6329 29.9493 29.0782 30.088 28.4809 30.088ZM36.8311 25.64C35.8498 25.64 35.0498 25.3947 34.4311 24.904C33.8338 24.392 33.5351 23.6347 33.5351 22.632C33.5351 22.248 33.5671 21.768 33.6311 21.192C33.7165 20.5947 33.8125 19.976 33.9191 19.336C34.0471 18.6747 34.1645 18.056 34.2711 17.48C34.3991 16.904 34.5058 16.424 34.5911 16.04L36.0311 8.68L41.7911 8.104L39.3271 20.584C39.3058 20.7547 39.2738 20.968 39.2311 21.224C39.1885 21.48 39.1671 21.7147 39.1671 21.928C39.1671 22.312 39.2738 22.664 39.4871 22.984C39.7005 23.2827 40.0525 23.4427 40.5431 23.464C40.3085 24.2107 39.8285 24.7547 39.1031 25.096C38.3778 25.4587 37.6205 25.64 36.8311 25.64ZM39.8071 6.056C38.8898 6.056 38.1325 5.85333 37.5351 5.448C36.9378 5.04267 36.6391 4.456 36.6391 3.688C36.6391 2.87733 36.9485 2.26933 37.5671 1.864C38.2071 1.43733 38.9858 1.224 39.9031 1.224C40.7991 1.224 41.5351 1.43733 42.1111 1.864C42.6871 2.26933 42.9751 2.856 42.9751 3.624C42.9751 4.43467 42.6658 5.04267 42.0471 5.448C41.4498 5.85333 40.7031 6.056 39.8071 6.056ZM56.0249 25.64C55.0435 25.64 54.2435 25.3947 53.6249 24.904C53.0062 24.392 52.6969 23.6133 52.6969 22.568C52.6969 22.0987 52.7609 21.512 52.8889 20.808C53.0382 20.104 53.1982 19.3573 53.3689 18.568C53.5609 17.7787 53.7422 16.9893 53.9129 16.2C54.1049 15.4107 54.2649 14.6747 54.3929 13.992C54.5209 13.288 54.5849 12.7013 54.5849 12.232C54.5849 11.7413 54.4889 11.336 54.2969 11.016C54.1049 10.6747 53.7635 10.504 53.2729 10.504C52.6329 10.504 52.0995 10.7707 51.6729 11.304C51.2462 11.8373 50.8942 12.488 50.6169 13.256C50.3609 14.024 50.1582 14.7707 50.0089 15.496L48.1849 25L42.4569 25.576L45.7849 8.68L50.4569 8.104L49.9769 11.176C50.5529 10.0667 51.3422 9.26667 52.3449 8.776C53.3689 8.28533 54.4889 8.04 55.7049 8.04C57.0915 8.04 58.1795 8.33867 58.9689 8.936C59.7582 9.53333 60.1529 10.4933 60.1529 11.816C60.1529 12.3707 60.0889 13 59.9609 13.704C59.8329 14.408 59.6729 15.1547 59.4809 15.944C59.3102 16.712 59.1395 17.4693 58.9689 18.216C58.7982 18.9413 58.6489 19.624 58.5209 20.264C58.3929 20.8827 58.3289 21.4053 58.3289 21.832C58.3289 22.28 58.4249 22.6533 58.6169 22.952C58.8302 23.2507 59.1929 23.4213 59.7049 23.464C59.4702 24.2107 58.9902 24.7547 58.2649 25.096C57.5609 25.4587 56.8142 25.64 56.0249 25.64ZM65.8134 25.64C64.8747 25.64 64.064 25.384 63.3814 24.872C62.72 24.36 62.3894 23.6133 62.3894 22.632C62.3894 22.2053 62.4427 21.6507 62.5494 20.968C62.656 20.264 62.7734 19.528 62.9014 18.76C63.0507 17.992 63.2 17.256 63.3494 16.552C63.4987 15.848 63.6054 15.272 63.6694 14.824L64.6294 10.12H62.6454L62.7734 9.16C63.968 8.776 65.1627 8.25333 66.3574 7.592C67.5734 6.93067 68.7254 6.16267 69.8134 5.288H71.2214L70.4854 8.68H72.9814L72.6934 10.12H70.2294L68.2774 20.168C68.2347 20.4667 68.192 20.7547 68.1494 21.032C68.1067 21.288 68.0747 21.544 68.0534 21.8C68.0534 22.5253 68.224 23.0053 68.5654 23.24C68.9067 23.4533 69.3974 23.4853 70.0374 23.336C69.76 23.976 69.3974 24.4667 68.9494 24.808C68.5014 25.128 68 25.3413 67.4454 25.448C66.912 25.576 66.368 25.64 65.8134 25.64ZM75.7411 31.4C74.8878 31.4 74.2051 31.1653 73.6931 30.696C73.1811 30.2267 72.9251 29.5547 72.9251 28.68C72.9251 28.0613 73.0745 27.4747 73.3731 26.92C73.6718 26.3653 74.0665 25.8427 74.5571 25.352C75.0691 24.8827 75.6025 24.456 76.1571 24.072L73.7891 24.168C73.7465 22.4187 73.6931 20.8613 73.6291 19.496C73.5865 18.1093 73.5225 16.84 73.4371 15.688C73.3731 14.5147 73.2771 13.4053 73.1491 12.36C73.0425 11.4213 72.8931 10.7067 72.7011 10.216C72.5091 9.72533 72.2211 9.36267 71.8371 9.128C72.3065 8.72267 72.8078 8.44533 73.3411 8.296C73.8958 8.12533 74.4718 8.04 75.0691 8.04C75.9865 8.04 76.6905 8.2 77.1811 8.52C77.6931 8.84 78.0558 9.32 78.2691 9.96C78.4825 10.6 78.6211 11.4 78.6851 12.36C78.7065 12.6373 78.7171 13.0533 78.7171 13.608C78.7385 14.1627 78.7491 14.7707 78.7491 15.432C78.7705 16.0933 78.7705 16.744 78.7491 17.384L78.7171 21.48C79.4851 20.4773 80.1678 19.4 80.7651 18.248C81.3838 17.0747 81.8638 15.8693 82.2051 14.632C82.5678 13.3947 82.7491 12.1787 82.7491 10.984C82.7491 10.7067 82.7385 10.408 82.7171 10.088C82.6958 9.768 82.6318 9.448 82.5251 9.128C82.8451 8.808 83.2398 8.552 83.7091 8.36C84.1785 8.14667 84.7118 8.04 85.3091 8.04C85.7785 8.04 86.2051 8.12533 86.5891 8.296C86.9945 8.46667 87.3145 8.744 87.5491 9.128C87.7838 9.512 87.9011 10.0133 87.9011 10.632C87.9011 11.3573 87.7518 12.1467 87.4531 13C87.1545 13.832 86.7491 14.696 86.2371 15.592C85.7251 16.488 85.1385 17.384 84.4771 18.28C83.8371 19.1547 83.1651 19.9867 82.4611 20.776C81.7785 21.5653 81.1065 22.2693 80.4451 22.888C79.7625 23.5493 79.1865 24.2 78.7171 24.84C78.2478 25.4587 78.0131 26.248 78.0131 27.208C78.0131 27.72 78.1411 28.232 78.3971 28.744C78.6745 29.2773 79.0158 29.7147 79.4211 30.056C78.9305 30.504 78.3545 30.8347 77.6931 31.048C77.0531 31.2827 76.4025 31.4 75.7411 31.4ZM99.1101 25.736C98.0221 25.736 97.0088 25.6827 96.0701 25.576C95.1315 25.4693 94.3528 25.288 93.7341 25.032C93.1155 24.7973 92.7421 24.5093 92.6141 24.168C92.9128 23.976 93.1475 23.7413 93.3181 23.464C93.5101 23.1867 93.6701 22.824 93.7981 22.376C93.9261 21.928 94.0541 21.3413 94.1821 20.616L96.0381 11.016C96.2941 9.58667 96.7741 8.488 97.4781 7.72C98.1821 6.952 99.2595 6.568 100.71 6.568C101.478 6.568 102.118 6.70667 102.63 6.984C103.163 7.26133 103.462 7.63467 103.526 8.104C102.95 8.33867 102.577 8.75467 102.406 9.352C102.235 9.928 102.075 10.5253 101.926 11.144L101.606 12.776H102.246C103.441 12.7547 104.39 12.5627 105.094 12.2C105.798 11.816 106.31 11.3253 106.63 10.728C106.95 10.1093 107.099 9.48 107.078 8.84C107.078 7.64533 106.545 6.71733 105.478 6.056C104.433 5.37333 102.971 5.032 101.094 5.032C100.155 5.032 99.2168 5.16 98.2781 5.416C97.3395 5.65067 96.4755 6.024 95.6861 6.536C94.9181 7.048 94.2888 7.69867 93.7981 8.488C93.3288 9.27733 93.0941 10.216 93.0941 11.304C93.0941 11.9227 93.1475 12.4987 93.2541 13.032C93.3821 13.5653 93.6168 14.184 93.9581 14.888C93.6808 15.1867 93.3288 15.4107 92.9021 15.56C92.4968 15.688 92.1235 15.752 91.7821 15.752C90.9288 15.752 90.2035 15.56 89.6061 15.176C89.0088 14.7707 88.5501 14.248 88.2301 13.608C87.9315 12.9467 87.7821 12.232 87.7821 11.464C87.7821 9.88533 88.3048 8.456 89.3501 7.176C90.3955 5.896 91.9208 4.88267 93.9261 4.136C95.9528 3.38933 98.3955 3.016 101.254 3.016C102.598 3.016 103.899 3.112 105.158 3.304C106.417 3.47467 107.547 3.77333 108.55 4.2C109.574 4.60533 110.385 5.14933 110.982 5.832C111.601 6.49333 111.91 7.32533 111.91 8.328C111.91 9.07467 111.729 9.768 111.366 10.408C111.003 11.048 110.523 11.6133 109.926 12.104C109.35 12.5947 108.71 12.9893 108.006 13.288C108.625 13.48 109.233 13.7573 109.83 14.12C110.427 14.4827 110.929 14.9733 111.334 15.592C111.739 16.2107 111.931 17 111.91 17.96C111.91 19.0907 111.654 20.136 111.142 21.096C110.651 22.0347 109.883 22.856 108.838 23.56C107.814 24.2427 106.491 24.776 104.87 25.16C103.27 25.544 101.35 25.736 99.1101 25.736ZM100.102 23.56C101.425 23.56 102.534 23.3253 103.43 22.856C104.347 22.3653 105.03 21.7147 105.478 20.904C105.947 20.0933 106.182 19.1973 106.182 18.216C106.182 17.0427 105.766 16.2107 104.934 15.72C104.102 15.2293 102.854 14.952 101.19 14.888L100.166 20.392C99.9528 21.352 99.7288 22.0773 99.4941 22.568C99.2595 23.0373 99.0141 23.3467 98.7581 23.496C98.9715 23.5173 99.1848 23.5387 99.3981 23.56C99.6328 23.56 99.8675 23.56 100.102 23.56ZM119.874 25.64C118.807 25.64 117.858 25.4907 117.026 25.192C116.194 24.9147 115.501 24.4987 114.946 23.944C114.391 23.368 113.975 22.6853 113.698 21.896C113.421 21.1067 113.282 20.2107 113.282 19.208C113.282 17.672 113.495 16.232 113.922 14.888C114.349 13.5227 114.978 12.328 115.81 11.304C116.642 10.28 117.666 9.48 118.882 8.904C120.119 8.328 121.538 8.04 123.138 8.04C124.226 8.04 125.175 8.18933 125.986 8.488C126.818 8.76533 127.501 9.18133 128.034 9.736C128.589 10.2907 129.005 10.9627 129.282 11.752C129.559 12.52 129.698 13.3947 129.698 14.376C129.698 15.912 129.485 17.3627 129.058 18.728C128.631 20.072 127.991 21.2667 127.138 22.312C126.306 23.3573 125.282 24.1787 124.066 24.776C122.85 25.352 121.453 25.64 119.874 25.64ZM120.386 23.72C120.919 23.72 121.399 23.4747 121.826 22.984C122.253 22.472 122.615 21.8 122.914 20.968C123.234 20.1147 123.49 19.1867 123.682 18.184C123.895 17.1813 124.045 16.1787 124.13 15.176C124.237 14.152 124.29 13.224 124.29 12.392C124.29 11.6667 124.173 11.08 123.938 10.632C123.703 10.184 123.266 9.96 122.626 9.96C122.071 9.96 121.57 10.216 121.122 10.728C120.695 11.2187 120.322 11.88 120.002 12.712C119.703 13.5227 119.458 14.4293 119.266 15.432C119.074 16.4347 118.925 17.448 118.818 18.472C118.733 19.4747 118.69 20.4133 118.69 21.288C118.69 21.992 118.807 22.5787 119.042 23.048C119.298 23.496 119.746 23.72 120.386 23.72ZM135.991 25.64C134.818 25.64 133.858 25.384 133.111 24.872C132.365 24.3387 131.81 23.6133 131.447 22.696C131.106 21.7573 130.935 20.6587 130.935 19.4C130.935 17.8 131.17 16.3173 131.639 14.952C132.13 13.5653 132.813 12.36 133.687 11.336C134.562 10.2907 135.575 9.48 136.727 8.904C137.879 8.328 139.138 8.04 140.503 8.04C141.591 8.04 142.711 8.25333 143.863 8.68L148.439 8.104L146.071 20.584C146.05 20.776 146.018 21 145.975 21.256C145.933 21.512 145.911 21.736 145.911 21.928C145.911 22.312 146.018 22.664 146.231 22.984C146.466 23.2827 146.829 23.4427 147.319 23.464C147.149 23.976 146.871 24.392 146.487 24.712C146.103 25.032 145.655 25.2667 145.143 25.416C144.653 25.5653 144.151 25.64 143.639 25.64C142.978 25.64 142.37 25.4907 141.815 25.192C141.261 24.8933 140.887 24.4347 140.695 23.816C140.141 24.3707 139.469 24.808 138.679 25.128C137.89 25.4693 136.994 25.64 135.991 25.64ZM137.847 23.624C138.487 23.624 138.999 23.4 139.383 22.952C139.789 22.4827 140.109 21.9173 140.343 21.256C140.578 20.5947 140.749 19.9547 140.855 19.336L142.391 10.632C142.071 10.3973 141.741 10.2267 141.399 10.12C141.079 10.0133 140.791 9.96 140.535 9.96C139.917 9.96 139.373 10.2053 138.903 10.696C138.434 11.1867 138.029 11.848 137.687 12.68C137.367 13.4907 137.101 14.3867 136.887 15.368C136.695 16.328 136.557 17.3093 136.471 18.312C136.386 19.2933 136.343 20.1893 136.343 21C136.343 21.6613 136.439 22.2693 136.631 22.824C136.823 23.3573 137.229 23.624 137.847 23.624ZM149.113 25.576L152.377 8.68L157.049 8.104L156.569 11.176C157.038 10.1733 157.678 9.40533 158.489 8.872C159.321 8.31733 160.292 8.04 161.401 8.04C162.617 8.04 163.534 8.36 164.153 9C164.793 9.61867 165.113 10.4933 165.113 11.624C165.113 12.904 164.74 13.9707 163.993 14.824C163.246 15.656 162.276 16.072 161.081 16.072C160.74 16.072 160.398 16.0293 160.057 15.944C159.716 15.8587 159.449 15.7093 159.257 15.496C159.62 15.048 159.908 14.472 160.121 13.768C160.356 13.0427 160.473 12.4027 160.473 11.848C160.473 11.464 160.398 11.144 160.249 10.888C160.121 10.632 159.865 10.504 159.481 10.504C159.118 10.504 158.777 10.632 158.457 10.888C158.158 11.144 157.892 11.5067 157.657 11.976C157.422 12.424 157.209 12.968 157.017 13.608C156.825 14.248 156.665 14.952 156.537 15.72L155.001 25L149.113 25.576ZM169.648 25.64C168.474 25.64 167.514 25.384 166.768 24.872C166.021 24.3387 165.466 23.6133 165.104 22.696C164.762 21.7573 164.592 20.6587 164.592 19.4C164.592 17.8 164.826 16.3173 165.296 14.952C165.786 13.5653 166.458 12.36 167.312 11.336C168.186 10.2907 169.2 9.48 170.352 8.904C171.525 8.328 172.784 8.04 174.128 8.04C174.64 8.04 175.141 8.072 175.632 8.136C176.144 8.2 176.581 8.31733 176.944 8.488L181.936 9.48C181.616 11.1867 181.274 12.968 180.912 14.824C180.57 16.68 180.176 18.6 179.728 20.584C179.706 20.776 179.674 21 179.632 21.256C179.589 21.512 179.568 21.736 179.568 21.928C179.568 22.312 179.674 22.664 179.888 22.984C180.122 23.2827 180.485 23.4427 180.976 23.464C180.805 23.976 180.528 24.392 180.144 24.712C179.76 25.032 179.312 25.2667 178.8 25.416C178.309 25.5653 177.808 25.64 177.296 25.64C176.634 25.64 176.026 25.4907 175.472 25.192C174.917 24.8933 174.544 24.4347 174.352 23.816C173.797 24.3707 173.125 24.808 172.336 25.128C171.546 25.4693 170.65 25.64 169.648 25.64ZM171.504 23.624C172.144 23.624 172.656 23.4 173.04 22.952C173.445 22.4827 173.765 21.9173 174 21.256C174.234 20.5947 174.405 19.9547 174.512 19.336L176.048 10.632C175.728 10.3973 175.397 10.2267 175.056 10.12C174.736 10.0133 174.448 9.96 174.192 9.96C173.573 9.96 173.029 10.2053 172.56 10.696C172.09 11.1867 171.685 11.848 171.344 12.68C171.024 13.4907 170.757 14.3867 170.544 15.368C170.352 16.328 170.213 17.3093 170.128 18.312C170.042 19.2933 170 20.1893 170 21C170 21.6613 170.096 22.2693 170.288 22.824C170.48 23.3573 170.885 23.624 171.504 23.624ZM181.872 9.832L176.4 9.48C176.613 8.34933 176.794 7.28267 176.944 6.28C177.093 5.256 177.189 4.328 177.232 3.496C177.232 3.15467 177.221 2.83467 177.2 2.536C177.2 2.23733 177.178 1.93867 177.136 1.64C177.52 1.40533 177.978 1.224 178.512 1.096C179.066 0.946666 179.621 0.872 180.176 0.872C180.922 0.872 181.573 1.064 182.128 1.448C182.682 1.832 182.949 2.536 182.928 3.56C182.928 3.85867 182.874 4.31733 182.768 4.936C182.682 5.55467 182.565 6.28 182.416 7.112C182.266 7.944 182.085 8.85067 181.872 9.832Z" fill="#7AE2CF"/>
</svg>
